<mxfile host="65bd71144e">
    <diagram id="h2Q2RxLUe2LxdP0xFpPm" name="Page-1">
        <mxGraphModel dx="425" dy="313" grid="1" gridSize="10" guides="1" tooltips="1" connect="1" arrows="1" fold="1" page="1" pageScale="1" pageWidth="827" pageHeight="1169" math="0" shadow="0">
            <root>
                <mxCell id="0"/>
                <mxCell id="1" parent="0"/>
                <mxCell id="22" value="" style="edgeStyle=none;html=1;strokeColor=#000000;strokeWidth=2;fontSize=20;fontColor=#000000;" parent="1" source="7" target="20" edge="1">
                    <mxGeometry relative="1" as="geometry"/>
                </mxCell>
                <mxCell id="25" value="" style="edgeStyle=none;html=1;strokeColor=#000000;strokeWidth=2;fontSize=20;fontColor=#000000;" parent="1" source="7" target="24" edge="1">
                    <mxGeometry relative="1" as="geometry"/>
                </mxCell>
                <mxCell id="29" value="" style="edgeStyle=none;html=1;entryX=1;entryY=0.079;entryDx=0;entryDy=0;entryPerimeter=0;strokeWidth=2;strokeColor=#000000;" edge="1" parent="1" source="7" target="8">
                    <mxGeometry relative="1" as="geometry"/>
                </mxCell>
                <mxCell id="7" value="&lt;font style=&quot;font-size: 22px;&quot; color=&quot;#000000&quot;&gt;ArtView&lt;/font&gt;" style="rounded=1;whiteSpace=wrap;html=1;strokeColor=#000000;strokeWidth=3;fontSize=15;fillColor=#FFE100;" parent="1" vertex="1">
                    <mxGeometry x="820" y="410" width="130" height="150" as="geometry"/>
                </mxCell>
                <mxCell id="9" value="" style="edgeStyle=none;html=1;strokeColor=#000000;strokeWidth=2;fontSize=22;fontColor=#000000;" parent="1" source="2" target="8" edge="1">
                    <mxGeometry relative="1" as="geometry"/>
                </mxCell>
                <mxCell id="2" value="&lt;font style=&quot;font-size: 15px;&quot;&gt;Veri TabanÄ±&lt;/font&gt;" style="rounded=1;whiteSpace=wrap;html=1;fillColor=#FFE100;fontColor=#000000;strokeColor=#000000;strokeWidth=3;" parent="1" vertex="1">
                    <mxGeometry x="430" y="560" width="150" height="190" as="geometry"/>
                </mxCell>
                <mxCell id="3" value="&lt;font style=&quot;font-size: 15px;&quot;&gt;Art&lt;/font&gt;" style="rounded=1;whiteSpace=wrap;html=1;fillColor=#FFE100;fontColor=#000000;strokeColor=#000000;strokeWidth=3;" parent="1" vertex="1">
                    <mxGeometry x="850" y="420" width="80" height="40" as="geometry"/>
                </mxCell>
                <mxCell id="10" value="" style="edgeStyle=none;html=1;strokeColor=#000000;strokeWidth=2;fontSize=22;fontColor=#000000;" parent="1" source="8" target="3" edge="1">
                    <mxGeometry relative="1" as="geometry"/>
                </mxCell>
                <mxCell id="30" style="edgeStyle=none;html=1;exitX=1.019;exitY=0.13;exitDx=0;exitDy=0;entryX=-0.007;entryY=0.646;entryDx=0;entryDy=0;entryPerimeter=0;exitPerimeter=0;strokeWidth=2;strokeColor=#000000;" edge="1" parent="1" source="8" target="7">
                    <mxGeometry relative="1" as="geometry"/>
                </mxCell>
                <mxCell id="32" style="edgeStyle=none;html=1;exitX=1;exitY=0.565;exitDx=0;exitDy=0;entryX=-0.012;entryY=0.606;entryDx=0;entryDy=0;entryPerimeter=0;exitPerimeter=0;strokeWidth=2;strokeColor=#000000;" edge="1" parent="1" source="8" target="11">
                    <mxGeometry relative="1" as="geometry"/>
                </mxCell>
                <mxCell id="33" style="edgeStyle=none;html=1;exitX=0.994;exitY=0.918;exitDx=0;exitDy=0;entryX=0;entryY=0.5;entryDx=0;entryDy=0;exitPerimeter=0;strokeWidth=2;strokeColor=#000000;" edge="1" parent="1" source="8" target="14">
                    <mxGeometry relative="1" as="geometry"/>
                </mxCell>
                <mxCell id="8" value="&lt;font style=&quot;font-size: 15px;&quot;&gt;Api&lt;/font&gt;" style="rounded=1;whiteSpace=wrap;html=1;fillColor=#FFE100;fontColor=#000000;strokeColor=#000000;strokeWidth=3;" parent="1" vertex="1">
                    <mxGeometry x="650" y="460" width="100" height="380" as="geometry"/>
                </mxCell>
                <mxCell id="21" value="" style="edgeStyle=none;html=1;strokeColor=#000000;strokeWidth=2;fontSize=20;fontColor=#000000;" parent="1" source="11" target="20" edge="1">
                    <mxGeometry relative="1" as="geometry"/>
                </mxCell>
                <mxCell id="31" value="" style="edgeStyle=none;html=1;entryX=0.993;entryY=0.525;entryDx=0;entryDy=0;entryPerimeter=0;strokeWidth=2;strokeColor=#000000;" edge="1" parent="1" source="11" target="8">
                    <mxGeometry relative="1" as="geometry"/>
                </mxCell>
                <mxCell id="11" value="&lt;font style=&quot;font-size: 20px;&quot; color=&quot;#000000&quot;&gt;MuseumView&lt;/font&gt;" style="rounded=1;whiteSpace=wrap;html=1;strokeColor=#000000;strokeWidth=3;fontSize=15;fillColor=#FFE100;" parent="1" vertex="1">
                    <mxGeometry x="820" y="590" width="130" height="140" as="geometry"/>
                </mxCell>
                <mxCell id="12" value="&lt;font style=&quot;font-size: 15px;&quot;&gt;Museum&lt;/font&gt;" style="rounded=1;whiteSpace=wrap;html=1;fillColor=#FFE100;fontColor=#000000;strokeColor=#000000;strokeWidth=3;" parent="1" vertex="1">
                    <mxGeometry x="850" y="600" width="80" height="40" as="geometry"/>
                </mxCell>
                <mxCell id="13" value="" style="edgeStyle=none;html=1;strokeColor=#000000;strokeWidth=2;fontSize=22;fontColor=#000000;" parent="1" source="8" target="12" edge="1">
                    <mxGeometry relative="1" as="geometry"/>
                </mxCell>
                <mxCell id="23" value="" style="edgeStyle=none;html=1;strokeColor=#000000;strokeWidth=2;fontSize=20;fontColor=#000000;" parent="1" source="14" target="20" edge="1">
                    <mxGeometry relative="1" as="geometry"/>
                </mxCell>
                <mxCell id="34" style="edgeStyle=none;html=1;exitX=-0.004;exitY=0.358;exitDx=0;exitDy=0;entryX=1;entryY=0.868;entryDx=0;entryDy=0;entryPerimeter=0;exitPerimeter=0;strokeWidth=2;strokeColor=#000000;" edge="1" parent="1" source="14" target="8">
                    <mxGeometry relative="1" as="geometry"/>
                </mxCell>
                <mxCell id="14" value="&lt;font color=&quot;#000000&quot;&gt;&lt;span style=&quot;font-size: 20px;&quot;&gt;ArtistView&lt;/span&gt;&lt;/font&gt;" style="rounded=1;whiteSpace=wrap;html=1;strokeColor=#000000;strokeWidth=3;fontSize=15;fillColor=#FFE100;" parent="1" vertex="1">
                    <mxGeometry x="820" y="740" width="130" height="140" as="geometry"/>
                </mxCell>
                <mxCell id="15" value="&lt;font style=&quot;font-size: 15px;&quot;&gt;Artist&lt;br&gt;&lt;/font&gt;" style="rounded=1;whiteSpace=wrap;html=1;fillColor=#FFE100;fontColor=#000000;strokeColor=#000000;strokeWidth=3;" parent="1" vertex="1">
                    <mxGeometry x="850" y="760" width="80" height="40" as="geometry"/>
                </mxCell>
                <mxCell id="18" style="edgeStyle=none;html=1;exitX=1;exitY=0.5;exitDx=0;exitDy=0;entryX=0;entryY=0.5;entryDx=0;entryDy=0;strokeColor=#000000;strokeWidth=2;fontSize=20;fontColor=#000000;" parent="1" source="8" target="15" edge="1">
                    <mxGeometry relative="1" as="geometry"/>
                </mxCell>
                <mxCell id="26" style="edgeStyle=none;html=1;exitX=0.5;exitY=0;exitDx=0;exitDy=0;entryX=0.5;entryY=1;entryDx=0;entryDy=0;strokeColor=#000000;strokeWidth=2;fontSize=20;fontColor=#000000;" parent="1" source="20" target="24" edge="1">
                    <mxGeometry relative="1" as="geometry"/>
                </mxCell>
                <mxCell id="20" value="&lt;font color=&quot;#000000&quot; style=&quot;font-size: 24px;&quot;&gt;Ui&lt;/font&gt;" style="whiteSpace=wrap;html=1;fontSize=15;fillColor=#FFE100;strokeColor=#000000;rounded=1;strokeWidth=3;" parent="1" vertex="1">
                    <mxGeometry x="1040" y="410" width="90" height="460" as="geometry"/>
                </mxCell>
                <mxCell id="27" style="edgeStyle=none;html=1;exitX=0.5;exitY=1;exitDx=0;exitDy=0;entryX=0.5;entryY=0;entryDx=0;entryDy=0;strokeColor=#000000;strokeWidth=2;fontSize=20;fontColor=#000000;" parent="1" source="24" target="8" edge="1">
                    <mxGeometry relative="1" as="geometry"/>
                </mxCell>
                <mxCell id="24" value="&lt;font color=&quot;#000000&quot;&gt;&lt;span style=&quot;font-size: 22px;&quot;&gt;Bloc&lt;br&gt;&lt;/span&gt;&lt;/font&gt;" style="rounded=1;whiteSpace=wrap;html=1;strokeColor=#000000;strokeWidth=3;fontSize=15;fillColor=#FFE100;" parent="1" vertex="1">
                    <mxGeometry x="690" y="250" width="400" height="90" as="geometry"/>
                </mxCell>
            </root>
        </mxGraphModel>
    </diagram>
</mxfile>